<svg height="224" width="1440" xmlns="http://www.w3.org/2000/svg"><path d="m1187 204h4v-4h-4zm0-20h4v-4h-4zm0-20h4v-4h-4zm0-20h4v-4h-4zm0-20h4v-4h-4zm0-20h4v-4h-4zm0-20h4v-4h-4zm0-20h4v-4h-4zm0-20h4v-4h-4zm0-20h4v-4h-4zm0-20h4v-4h-4zm-20 200h4v-4h-4zm0-20h4v-4h-4zm0-20h4v-4h-4zm0-20h4v-4h-4zm0-20h4v-4h-4zm0-20h4v-4h-4zm0-20h4v-4h-4zm0-20h4v-4h-4zm0-20h4v-4h-4zm0-20h4v-4h-4zm0-20h4v-4h-4zm40 200h4v-4h-4zm0-20h4v-4h-4zm0-20h4v-4h-4zm0-20h4v-4h-4zm0-20h4v-4h-4zm0-20h4v-4h-4zm0-20h4v-4h-4zm0-20h4v-4h-4zm0-20h4v-4h-4zm0-20h4v-4h-4zm0-20h4v-4h-4zm20 220h4v-4h-4zm0-20h4v-4h-4zm0-20h4v-4h-4zm0-20h4v-4h-4zm0-20h4v-4h-4zm0-20h4v-4h-4zm0-20h4v-4h-4zm0-20h4v-4h-4zm0-20h4v-4h-4zm0-20h4v-4h-4zm0-20h4v-4h-4zm0-20h4v-4h-4zm20 220h4v-4h-4zm0-20h4v-4h-4zm0-20h4v-4h-4zm0-20h4v-4h-4zm0-20h4v-4h-4zm0-20h4v-4h-4zm0-20h4v-4h-4zm0-20h4v-4h-4zm0-20h4v-4h-4zm0-20h4v-4h-4zm0-20h4v-4h-4zm0-20h4v-4h-4zm20 220h4v-4h-4zm0-20h4v-4h-4zm0-20h4v-4h-4zm0-20h4v-4h-4zm0-20h4v-4h-4zm0-20h4v-4h-4zm0-20h4v-4h-4zm0-20h4v-4h-4zm0-20h4v-4h-4zm0-20h4v-4h-4zm0-20h4v-4h-4zm0-20h4v-4h-4zm20 220h4v-4h-4zm0-20h4v-4h-4zm0-20h4v-4h-4zm0-20h4v-4h-4zm0-20h4v-4h-4zm0-20h4v-4h-4zm0-20h4v-4h-4zm0-20h4v-4h-4zm0-20h4v-4h-4zm0-20h4v-4h-4zm0-20h4v-4h-4zm0-20h4v-4h-4zm20 220h4v-4h-4zm0-20h4v-4h-4zm0-20h4v-4h-4zm0-20h4v-4h-4zm0-20h4v-4h-4zm0-20h4v-4h-4zm0-20h4v-4h-4zm0-20h4v-4h-4zm0-20h4v-4h-4zm0-20h4v-4h-4zm0-20h4v-4h-4zm0-20h4v-4h-4z" fill="#95A4B4" fill-rule="evenodd"/></svg>
