<?xml version="1.0" encoding="UTF-8" standalone="no"?>
<!DOCTYPE svg PUBLIC "-//W3C//DTD SVG 1.1//EN" "http://www.w3.org/Graphics/SVG/1.1/DTD/svg11.dtd">
<svg width="100%" height="100%" viewBox="0 0 218 39" version="1.1" xmlns="http://www.w3.org/2000/svg" xmlns:xlink="http://www.w3.org/1999/xlink" xml:space="preserve" xmlns:serif="http://www.serif.com/" style="fill-rule:evenodd;clip-rule:evenodd;stroke-linejoin:round;stroke-miterlimit:2;">
    <g id="Layer_1" transform="matrix(1,0,0,1,1.63817,0.571771)">
        <g>
            <g id="Fill-1" transform="matrix(1.03674,0,0,1.05167,108.065,8.3462)">
                <path d="M8.896,2.748C11.986,4.22 12.64,5.061 14.04,6.976C15.399,5.208 19.419,2.036 22.428,1.67C19.572,3.499 16.015,5.051 14.251,11.994C12.753,8.076 11.125,4.543 8.896,2.748" style="fill:rgb(0,173,238);"/>
            </g>
            <g id="Fill-3" transform="matrix(1.03674,0,0,1.05167,120.494,8.41593)">
                <path d="M2.22,0.128C3.377,0.128 4.317,1.057 4.317,2.203C4.317,3.348 3.377,4.276 2.22,4.276C1.062,4.276 0.123,3.348 0.123,2.203C0.123,1.057 1.062,0.128 2.22,0.128" style="fill:rgb(145,148,151);"/>
            </g>
            <g id="Fill-6" transform="matrix(1.03674,0,0,1.05167,108.065,8.3462)">
                <path d="M23.212,5.075C22.576,8.408 21.924,9.25 20.417,11.086C22.495,11.925 26.631,14.948 27.768,17.727C25.243,15.473 22.807,12.475 15.571,12.586C19.008,10.141 22.038,7.671 23.212,5.075" style="fill:rgb(0,173,238);"/>
            </g>
            <g id="Fill-8" transform="matrix(1.03674,0,0,1.05167,108.065,8.3462)">
                <path d="M27.081,9.491C27.379,10.598 26.717,11.734 25.598,12.031C24.481,12.328 23.329,11.67 23.031,10.564C22.731,9.458 23.395,8.321 24.513,8.025C25.631,7.728 26.783,8.385 27.081,9.491" style="fill:rgb(145,148,151);"/>
            </g>
            <g id="Fill-10" transform="matrix(1.03674,0,0,1.05167,108.065,8.3462)">
                <path d="M24.383,20.244C20.965,20.499 19.973,20.092 17.792,19.127C17.511,21.331 15.63,26.065 13.211,27.872C14.756,24.875 17.055,21.773 15.074,14.886C18.35,17.538 21.545,19.792 24.383,20.244" style="fill:rgb(0,173,238);"/>
            </g>
            <g id="Fill-12" transform="matrix(1.03674,0,0,1.05167,108.065,8.3462)">
                <path d="M21.074,25.083C20.071,25.656 18.789,25.316 18.21,24.324C17.633,23.331 17.975,22.063 18.977,21.49C19.98,20.918 21.262,21.257 21.842,22.25C22.419,23.241 22.077,24.51 21.074,25.083" style="fill:rgb(145,148,151);"/>
            </g>
            <g id="Fill-14" transform="matrix(1.03674,0,0,1.05167,108.065,8.3462)">
                <path d="M10.339,25.409C9.206,22.207 9.346,21.155 9.723,18.821C7.499,19.122 2.39,18.549 0,16.704C3.326,17.408 6.949,18.8 13.161,15.125C11.42,18.942 10.045,22.58 10.339,25.409" style="fill:rgb(0,173,238);"/>
            </g>
            <g id="Fill-16" transform="matrix(1.03674,0,0,1.05167,108.065,8.3462)">
                <path d="M4.758,23.497C3.939,22.689 3.939,21.375 4.758,20.565C5.577,19.755 6.904,19.755 7.722,20.565C8.54,21.375 8.54,22.689 7.722,23.497C6.904,24.309 5.577,24.309 4.758,23.497" style="fill:rgb(145,148,151);"/>
            </g>
            <g id="Fill-18" transform="matrix(1.03674,0,0,1.05167,108.065,8.3462)">
                <path d="M1.647,13.404C4.481,11.493 5.544,11.354 7.921,11.109C7.051,9.063 6.287,4.032 7.471,1.27C7.644,4.63 7.223,8.453 12.418,13.438C8.24,12.762 4.333,12.391 1.647,13.404" style="fill:rgb(0,173,238);"/>
            </g>
            <g id="Fill-20" transform="matrix(1.03674,0,0,1.05167,108.065,8.3462)">
                <path d="M2.067,7.575C2.648,6.584 3.93,6.243 4.934,6.816C5.935,7.389 6.279,8.656 5.7,9.651C5.122,10.641 3.838,10.983 2.837,10.408C1.833,9.837 1.491,8.566 2.067,7.575" style="fill:rgb(145,148,151);"/>
            </g>
            <g id="Fill-22" transform="matrix(1.03674,0,0,1.05167,108.065,8.3462)">
                <path d="M33.55,7.725L33.727,9.144C34.697,8.068 35.686,7.53 36.695,7.53C37.232,7.53 37.749,7.608 38.247,7.763L38.464,7.822L38.365,10.641L37.088,10.641L36.793,9.183C35.666,9.183 34.716,9.688 33.943,10.7L33.943,16.475L35.909,16.961L35.909,18.03L30.308,18.03L30.308,16.961L31.978,16.475L31.978,9.28L30.308,8.891L30.308,7.822L33.55,7.725Z" style="fill:rgb(0,173,238);"/>
            </g>
            <g id="Fill-24" transform="matrix(1.03674,0,0,1.05167,108.065,8.3462)">
                <path d="M41.097,11.711L45.814,11.711C45.814,10.92 45.643,10.278 45.303,9.786C44.962,9.293 44.412,9.047 43.652,9.047C42.905,9.047 42.309,9.296 41.863,9.795C41.418,10.294 41.162,10.933 41.097,11.711ZM47.799,13.13L41.018,13.169C41.018,14.232 41.277,15.081 41.795,15.716C42.312,16.351 43.003,16.669 43.868,16.669C44.156,16.669 44.445,16.643 44.733,16.591C45.021,16.539 45.293,16.475 45.548,16.397C45.804,16.319 46.036,16.231 46.246,16.134C46.456,16.037 46.633,15.943 46.777,15.852L47.17,15.6L47.858,16.611C47.412,16.961 47.003,17.236 46.629,17.437C46.256,17.638 45.817,17.819 45.313,17.981C44.808,18.143 44.261,18.225 43.672,18.225C42.125,18.225 40.953,17.761 40.154,16.834C39.354,15.908 38.955,14.64 38.955,13.033C38.955,12.229 39.073,11.49 39.309,10.816C39.544,10.142 39.875,9.562 40.301,9.076C40.727,8.59 41.235,8.211 41.824,7.938C42.414,7.666 43.062,7.53 43.77,7.53C46.521,7.53 47.897,9.053 47.897,12.1L47.799,13.13Z" style="fill:rgb(0,173,238);"/>
            </g>
            <g id="Fill-26" transform="matrix(1.03674,0,0,1.05167,108.065,8.3462)">
                <path d="M53.596,8.891C52.09,8.891 51.336,9.669 51.336,11.225C51.336,11.938 51.52,12.505 51.887,12.926C52.253,13.347 52.784,13.558 53.479,13.558C54.278,13.558 54.857,13.373 55.218,13.004C55.578,12.634 55.758,12.041 55.758,11.225C55.758,9.669 55.038,8.891 53.596,8.891M54.383,18.03L52.221,18.03C52.155,18.056 52.027,18.137 51.838,18.273C51.647,18.409 51.5,18.536 51.395,18.652C51.094,18.989 50.943,19.365 50.943,19.78C50.943,20.415 51.195,20.85 51.7,21.083C52.204,21.316 52.968,21.433 53.99,21.433C55.955,21.433 56.938,20.817 56.938,19.586C56.938,18.989 56.724,18.581 56.299,18.361C55.873,18.14 55.234,18.03 54.383,18.03M53.4,14.919C52.823,14.919 52.332,14.861 51.926,14.744L51.828,16.572L54.874,16.572C56.158,16.572 57.134,16.812 57.802,17.291C58.47,17.771 58.805,18.497 58.805,19.469C58.805,20.519 58.372,21.352 57.507,21.968C56.643,22.583 55.372,22.891 53.695,22.891C50.55,22.891 48.978,21.951 48.978,20.072C48.978,19.255 49.417,18.561 50.295,17.991C50.504,17.862 50.753,17.745 51.042,17.641C50.688,17.589 50.403,17.466 50.187,17.272C49.97,17.077 49.862,16.857 49.862,16.611C49.862,16.183 50.118,15.561 50.629,14.744L50.884,14.336C50.766,14.297 50.606,14.18 50.403,13.986C50.2,13.791 50.033,13.597 49.902,13.402C49.548,12.858 49.371,12.164 49.371,11.322C49.371,10.09 49.761,9.151 50.54,8.502C51.32,7.854 52.371,7.53 53.695,7.53C54.428,7.53 55.011,7.621 55.444,7.802L55.66,7.9L59.099,7.822L59.099,8.891L57.193,9.163C57.547,9.63 57.724,10.285 57.724,11.127C57.724,12.398 57.337,13.347 56.564,13.976C55.791,14.605 54.736,14.919 53.4,14.919" style="fill:rgb(0,173,238);"/>
            </g>
            <g id="Fill-28" transform="matrix(1.03674,0,0,1.05167,108.065,8.3462)">
                <path d="M63.128,7.725L63.305,9.144C64.274,8.068 65.264,7.53 66.273,7.53C66.81,7.53 67.327,7.608 67.825,7.763L68.041,7.822L67.943,10.641L66.666,10.641L66.371,9.183C65.244,9.183 64.294,9.688 63.521,10.7L63.521,16.475L65.486,16.961L65.486,18.03L59.885,18.03L59.885,16.961L61.556,16.475L61.556,9.28L59.885,8.891L59.885,7.822L63.128,7.725Z" style="fill:rgb(0,173,238);"/>
            </g>
            <g id="Fill-30" transform="matrix(1.03674,0,0,1.05167,108.065,8.3462)">
                <path d="M73.446,9.086C71.546,9.086 70.596,10.35 70.596,12.877C70.596,15.405 71.513,16.669 73.348,16.669C74.304,16.669 75.002,16.345 75.441,15.697C75.88,15.049 76.099,14.076 76.099,12.78C76.099,10.317 75.215,9.086 73.446,9.086M68.533,13.033C68.533,12.203 68.654,11.448 68.896,10.768C69.138,10.087 69.482,9.507 69.928,9.027C70.373,8.548 70.901,8.178 71.51,7.919C72.119,7.66 72.791,7.53 73.524,7.53C74.992,7.53 76.132,7.99 76.944,8.911C77.756,9.831 78.163,11.108 78.163,12.741C78.163,13.545 78.045,14.281 77.809,14.948C77.573,15.616 77.242,16.193 76.816,16.679C76.391,17.165 75.873,17.544 75.264,17.816C74.655,18.088 73.977,18.225 73.23,18.225C71.736,18.225 70.58,17.784 69.761,16.902C68.942,16.021 68.533,14.731 68.533,13.033" style="fill:rgb(0,173,238);"/>
            </g>
            <g id="Fill-32" transform="matrix(1.03674,0,0,1.05167,108.065,8.3462)">
                <path d="M89.07,7.725L89.07,16.475L90.741,16.863L90.741,17.933L87.498,18.03L87.301,16.669C86.751,17.149 86.129,17.528 85.434,17.806C84.74,18.085 84.15,18.225 83.665,18.225C82.617,18.225 81.831,17.92 81.307,17.311C80.783,16.701 80.521,15.846 80.521,14.744L80.521,9.28L78.851,8.891L78.851,7.822L82.486,7.725L82.486,14.55C82.486,15.237 82.624,15.745 82.899,16.076C83.174,16.406 83.593,16.572 84.157,16.572C84.72,16.572 85.238,16.442 85.709,16.183C86.181,15.924 86.528,15.671 86.751,15.425L87.105,15.036L87.105,9.28L85.434,8.891L85.434,7.822L89.07,7.725Z" style="fill:rgb(0,173,238);"/>
            </g>
            <g id="Fill-34" transform="matrix(1.03674,0,0,1.05167,108.065,8.3462)">
                <path d="M94.868,10.447L94.868,16.28C95.274,16.539 95.961,16.669 96.931,16.669C98.897,16.669 99.879,15.373 99.879,12.78C99.879,11.639 99.67,10.738 99.25,10.077C98.831,9.416 98.189,9.086 97.324,9.086C96.826,9.086 96.358,9.199 95.919,9.426C95.48,9.653 95.13,9.993 94.868,10.447ZM94.573,7.725L94.73,8.813C95.647,7.958 96.643,7.53 97.717,7.53C99.106,7.53 100.158,7.981 100.872,8.881C101.586,9.783 101.943,11.063 101.943,12.722C101.943,13.526 101.835,14.265 101.619,14.938C101.402,15.613 101.071,16.193 100.626,16.679C100.181,17.165 99.627,17.544 98.965,17.816C98.303,18.088 97.527,18.225 96.636,18.225C96.086,18.225 95.497,18.134 94.868,17.952L94.868,21.044L96.931,21.433L96.931,22.502L91.33,22.502L91.33,21.433L92.902,21.044L92.902,9.28L91.232,8.891L91.232,7.822L94.573,7.725Z" style="fill:rgb(0,173,238);"/>
            </g>
        </g>
        <g>
            <rect x="95.35" y="20.94" width="9.8" height="1.36" style="fill:rgb(0,173,238);"/>
            <rect x="99.55" y="16.72" width="1.36" height="9.8" style="fill:rgb(0,173,238);"/>
            <rect x="93.97" y="20.94" width="9.8" height="1.36" style="fill:rgb(19,87,153);"/>
            <rect x="98.17" y="16.72" width="1.36" height="9.8" style="fill:rgb(19,87,153);"/>
            <path d="M39.28,5.88L35,9.39C33.38,4 26.93,0.21 15.43,3.74C11.91,4.84 7,7.73 4.3,9.38C8.191,6.16 12.681,3.74 17.51,2.26C28.86,-1.43 40.2,-0.69 42.92,8.8L40.79,5.8L39.28,5.88Z" style="fill:rgb(19,87,153);fill-rule:nonzero;"/>
            <path d="M7.39,28.29L7.39,15.81L8.73,15.81L18.09,24.18C18.621,24.664 19.112,25.189 19.56,25.75C19.418,24.757 19.354,23.753 19.37,22.75L19.37,15.81L21.32,15.81L21.32,28.29L20.11,28.29L10.51,19.62L9.89,19.06C9.632,18.809 9.416,18.519 9.25,18.2C9.348,19.1 9.392,20.005 9.38,20.91L9.38,28.29L7.39,28.29Z" style="fill:rgb(153,155,158);fill-rule:nonzero;"/>
            <path d="M34.1,17.48L25.25,17.48L25.25,21L33.11,21C33.933,20.911 34.76,21.14 35.42,21.64C35.897,22.31 36.11,23.133 36.02,23.95L36.02,25.35C36.108,26.177 35.895,27.008 35.42,27.69C34.756,28.18 33.929,28.398 33.11,28.3L23.38,28.3L23.38,26.55L34.15,26.55L34.15,22.81L26.32,22.81C25.492,22.896 24.662,22.664 24,22.16C23.51,21.488 23.288,20.657 23.38,19.83L23.38,18.72C23.3,17.901 23.521,17.079 24,16.41C24.671,15.951 25.48,15.739 26.29,15.81L36,15.81L36,17.45" style="fill:rgb(19,87,153);fill-rule:nonzero;"/>
            <rect x="38.73" y="15.81" width="2.06" height="12.48" style="fill:rgb(19,87,153);fill-rule:nonzero;"/>
            <path d="M57.68,17.48L45.88,17.48L45.88,26.55L55.65,26.55L55.65,22.9L50.65,22.9L50.65,21.31L57.8,21.31L57.8,25.31C57.906,26.13 57.703,26.961 57.23,27.64C56.576,28.126 55.76,28.345 54.95,28.25L46.7,28.25C45.881,28.349 45.054,28.131 44.39,27.64C43.901,26.964 43.68,26.13 43.77,25.3L43.77,18.77C43.68,17.94 43.901,17.106 44.39,16.43C45.059,15.951 45.881,15.73 46.7,15.81L57.7,15.81L57.68,17.48Z" style="fill:rgb(19,87,153);fill-rule:nonzero;"/>
            <path d="M60.6,28.19L60.6,15.86L62.66,15.86L62.66,20.9L72.4,20.9L72.4,15.86L74.44,15.86L74.44,28.19L72.4,28.19L72.4,22.61L62.66,22.61L62.66,28.19L60.6,28.19Z" style="fill:rgb(19,87,153);fill-rule:nonzero;"/>
            <path d="M83.25,17.53L83.25,28.19L81.2,28.19L81.2,17.53L75.55,17.53L75.55,15.86L88.91,15.86L88.91,17.53L83.25,17.53Z" style="fill:rgb(19,87,153);fill-rule:nonzero;"/>
            <path d="M2.87,13.61C2.86,13.61 2.85,13.61 2.84,13.61C2.034,13.61 1.37,12.947 1.37,12.14C1.37,11.334 2.034,10.67 2.84,10.67C3.639,10.67 4.299,11.321 4.31,12.12C4.31,12.133 4.311,12.147 4.311,12.16C4.311,12.939 3.679,13.584 2.9,13.6L2.87,13.61ZM2.89,9.49L2.86,9.49C1.395,9.49 0.19,10.695 0.19,12.16C0.19,13.625 1.395,14.83 2.86,14.83C4.325,14.83 5.53,13.625 5.53,12.16L5.53,12.14C5.53,10.69 4.34,9.495 2.89,9.49Z" style="fill:rgb(153,155,158);fill-rule:nonzero;"/>
            <path d="M39.8,13.62C39.011,13.604 38.37,12.95 38.37,12.16C38.37,11.359 39.029,10.7 39.83,10.7C40.631,10.7 41.29,11.359 41.29,12.16C41.29,12.961 40.631,13.62 39.83,13.62L39.8,13.62ZM39.8,9.5C39.797,9.5 39.793,9.5 39.79,9.5C38.325,9.5 37.12,10.705 37.12,12.17C37.12,13.635 38.325,14.84 39.79,14.84C41.255,14.84 42.46,13.635 42.46,12.17C42.46,12.167 42.46,12.163 42.46,12.16C42.46,10.701 41.259,9.5 39.8,9.5Z" style="fill:rgb(19,87,153);fill-rule:nonzero;"/>
            <rect x="1.63" y="15.81" width="2.08" height="12.48" style="fill:rgb(153,155,158);fill-rule:nonzero;"/>
            <path d="M18,2.75C29.64,-0.35 40,0.13 42.94,8.75C42.126,7.844 40.947,7.348 39.73,7.4C37.629,7.452 35.798,8.884 35.24,10.91C33.91,5.38 27.5,1.17 15.8,4.12C12.17,5 7.16,7.87 4.34,9.35C8.412,6.268 13.055,4.024 18,2.75Z" style="fill:rgb(153,155,158);fill-rule:nonzero;"/>
        </g>
    </g>
</svg>
